<svg width="173" height="44" viewBox="0 0 173 44" fill="none" xmlns="http://www.w3.org/2000/svg">
<path d="M52.4551 23.668H60.62V26.0319H55.0807V30.8345H59.9348V33.1754H55.0807V40.2212H52.4551V23.668Z" fill="#124734"/>
<path d="M68.6994 27.5732C72.5112 27.5732 75.2578 30.3398 75.2578 34.0553C75.2578 37.7709 72.4652 40.5374 68.6994 40.5374C64.9106 40.5374 62.1641 37.8169 62.1641 34.0841C62.1641 30.3398 64.9797 27.5732 68.6994 27.5732ZM68.6994 38.2368C70.9969 38.2368 72.6782 36.4653 72.6782 34.0496C72.6782 31.6396 70.9969 29.8624 68.6994 29.8624C66.3789 29.8624 64.7667 31.6569 64.7667 34.0726C64.7667 36.5113 66.402 38.2368 68.6994 38.2368Z" fill="#124734"/>
<path d="M76.9316 35.3033V27.8779H79.4882V35.5161C79.4882 37.2186 80.5534 38.2136 81.9757 38.2136C83.611 38.2136 84.6762 37.0288 84.6762 35.3263V27.8779H87.2558V40.2209H84.7223V38.6105C84.1752 39.6055 82.897 40.5258 81.2444 40.5258C78.0487 40.5315 76.9316 38.0008 76.9316 35.3033Z" fill="#124734"/>
<path d="M100.016 32.7957V40.2211H97.459V32.5829C97.459 30.8804 96.3938 29.8854 94.9715 29.8854C93.3362 29.8854 92.271 31.0932 92.271 32.7727V40.2211H89.6914V27.8781H92.2249V29.4885C92.7719 28.5165 94.0502 27.5732 95.7028 27.5732C98.9042 27.5732 100.016 30.104 100.016 32.7957Z" fill="#124734"/>
<path d="M114.152 40.2208H111.71V38.6104C111.377 39.036 110.127 40.5256 107.732 40.5256C104.202 40.5256 101.697 37.8511 101.697 34.0723C101.697 30.2647 104.041 27.5672 107.57 27.5672C109.914 27.5672 111.238 28.9879 111.572 29.5285V23.127H114.152V40.2208ZM107.974 29.8621C105.82 29.8621 104.306 31.6106 104.306 34.0953C104.306 36.626 105.895 38.2595 107.997 38.2595C110.271 38.2595 111.664 36.3672 111.664 34.0953C111.664 31.4036 110.029 29.8621 107.974 29.8621Z" fill="#124734"/>
<path d="M120.711 32.3471C122.133 32.3471 123.198 32.8187 123.67 33.2444V32.0883C123.67 30.6676 122.674 29.8164 121.045 29.8164C119.674 29.8164 118.488 30.288 117.59 30.7884L116.594 28.9939C117.59 28.3555 119.242 27.5732 121.304 27.5732C124.972 27.5732 126.227 29.5576 126.227 32.2551V40.2268H123.976L123.762 39.3066C123.123 40.014 122.127 40.5374 120.59 40.5374C117.987 40.5374 115.926 38.904 115.926 36.425C115.926 34.0266 117.866 32.3471 120.711 32.3471ZM121.137 38.4726C122.651 38.4726 123.739 37.6213 123.739 36.3445C123.739 35.0446 122.674 34.2164 121.114 34.2164C119.553 34.2164 118.511 35.1136 118.511 36.3445C118.505 37.5753 119.571 38.4726 121.137 38.4726Z" fill="#124734"/>
<path d="M128.806 25.3008H131.363V27.8775H133.873V30.0056H131.363V35.7515C131.363 37.6668 132.094 38.0924 133.47 38.0924C133.683 38.0924 133.965 38.0694 133.965 38.0694V40.2895C133.965 40.2895 133.516 40.3816 132.71 40.3816C129.704 40.3816 128.806 38.3742 128.806 35.3431V29.9999H127.436V27.8718H128.806V25.3008Z" fill="#124734"/>
<path d="M136.948 23.219C137.847 23.219 138.561 23.9264 138.561 24.8294C138.561 25.7267 137.852 26.4399 136.948 26.4399C136.05 26.4399 135.336 25.7324 135.336 24.8294C135.342 23.9264 136.05 23.219 136.948 23.219ZM135.67 27.8778H138.25V40.2208H135.67V27.8778Z" fill="#124734"/>
<path d="M146.559 27.5732C150.371 27.5732 153.117 30.3398 153.117 34.0553C153.117 37.7709 150.325 40.5374 146.559 40.5374C142.77 40.5374 140.023 37.8169 140.023 34.0841C140.029 30.3398 142.845 27.5732 146.559 27.5732ZM146.559 38.2368C148.856 38.2368 150.538 36.4653 150.538 34.0496C150.538 31.6396 148.856 29.8624 146.559 29.8624C144.238 29.8624 142.626 31.6569 142.626 34.0726C142.632 36.5113 144.267 38.2368 146.559 38.2368Z" fill="#124734"/>
<path d="M165.215 32.7957V40.2211H162.658V32.5829C162.658 30.8804 161.593 29.8854 160.171 29.8854C158.535 29.8854 157.47 31.0932 157.47 32.7727V40.2211H154.891V27.8781H157.424V29.4885C157.971 28.5165 159.249 27.5732 160.902 27.5732C164.103 27.5732 165.215 30.104 165.215 32.7957Z" fill="#124734"/>
<path d="M73.2059 10.2785C70.5054 10.2785 69.728 12.3375 69.728 15.0063V20.3266H67.1484V7.9893H69.682V9.9276C70.1541 8.69675 71.4555 7.67871 73.2116 7.67871V10.2785H73.2059Z" fill="#124734"/>
<path d="M74.7676 3.23242H77.3472V9.63974C77.6811 9.09334 79.0055 7.67844 81.349 7.67844C84.8787 7.67844 87.2222 10.376 87.2222 14.1835C87.2222 17.9681 84.7117 20.6369 81.1878 20.6369C78.7982 20.6369 77.5429 19.1472 77.209 18.7216V20.332H74.7733V3.23242H74.7676ZM80.9229 18.365C83.0303 18.365 84.6138 16.7315 84.6138 14.2008C84.6138 11.7161 83.0994 9.96759 80.9459 9.96759C78.8846 9.96759 77.255 11.5033 77.255 14.2008C77.255 16.4784 78.6485 18.365 80.9229 18.365Z" fill="#124734"/>
<path d="M94.7697 7.67871C98.5815 7.67871 101.328 10.4452 101.328 14.1608C101.328 17.8764 98.5355 20.6429 94.7697 20.6429C90.9809 20.6429 88.2344 17.9224 88.2344 14.1896C88.2401 10.4452 91.0558 7.67871 94.7697 7.67871ZM94.7697 18.3422C97.0672 18.3422 98.7485 16.5707 98.7485 14.1551C98.7485 11.7394 97.0672 9.96786 94.7697 9.96786C92.4492 9.96786 90.8428 11.7624 90.8428 14.1781C90.8428 16.6168 92.478 18.3422 94.7697 18.3422Z" fill="#124734"/>
<path d="M109.165 10.2785C106.464 10.2785 105.687 12.3375 105.687 15.0063V20.3266H103.107V7.9893H105.641V9.9276C106.113 8.69675 107.414 7.67871 109.171 7.67871V10.2785H109.165Z" fill="#124734"/>
<path d="M116.6 3.7793H120.504C126.043 3.7793 129.336 6.87943 129.336 12.0559C129.336 17.4452 125.974 20.3325 120.504 20.3325H116.6V3.7793ZM120.768 18.0376C124.321 18.0376 126.619 16.0015 126.619 12.0559C126.619 8.24832 124.321 6.09721 120.768 6.09721H119.231V18.0376H120.768Z" fill="#124734"/>
<path d="M135.279 12.4583C136.701 12.4583 137.767 12.93 138.239 13.3556V12.1937C138.239 10.7731 137.243 9.92185 135.613 9.92185C134.243 9.92185 133.056 10.3935 132.158 10.8939L131.162 9.09936C132.158 8.46093 133.811 7.67871 135.872 7.67871C139.54 7.67871 140.795 9.66302 140.795 12.3605V20.3323H138.544L138.331 19.412C137.692 20.1195 136.696 20.6429 135.158 20.6429C132.556 20.6429 130.494 19.0094 130.494 16.5305C130.5 14.1378 132.44 12.4583 135.279 12.4583ZM135.705 18.5781C137.22 18.5781 138.308 17.7268 138.308 16.45C138.308 15.1501 137.243 14.3218 135.682 14.3218C134.122 14.3218 133.079 15.2191 133.079 16.45C133.079 17.6808 134.145 18.5781 135.705 18.5781Z" fill="#124734"/>
<path d="M145.009 24.5655L146.759 20.1195L141.859 7.98926H144.629L147.969 16.9733L151.256 7.98926H153.957L147.497 24.5655H145.009Z" fill="#124734"/>
<path d="M65.7962 20.3325L59.756 3.7793H57.0325L50.9981 20.3325H53.6467L54.9308 16.6399C57.1188 15.5701 59.6812 15.5701 61.8692 16.6457L63.1417 20.3383H65.7962V20.3325ZM55.8233 14.0632L58.4086 6.61485L60.9825 14.069C59.3126 13.4881 57.4931 13.4881 55.8233 14.0632Z" fill="#124734"/>
<path d="M22.0244 0C9.88077 0 0 9.86981 0 22C0 34.1302 9.88077 44 22.0244 44C34.1681 44 44.0489 34.1302 44.0489 22C44.0489 9.86981 34.1681 0 22.0244 0ZM16.537 23.041C17.9132 22.5176 17.1647 21.5916 17.8038 21.4306C18.0456 21.3731 18.4257 21.5111 18.8863 21.7929C18.8978 21.7987 18.9842 21.8505 19.0648 21.8044C19.1339 21.7699 19.1397 21.6319 19.1397 21.6146C19.1973 20.9359 19.0591 19.3715 18.6733 18.4973C18.5581 18.2327 18.9093 18.0544 19.0475 18.2384C20.297 19.8661 20.6425 22.8397 20.3719 25.3129C20.3316 25.681 20.0782 25.8651 19.8249 25.7903C19.0072 25.543 17.1474 24.8816 16.7155 24.4444C17.2971 23.691 16.7846 23.2711 16.537 23.041ZM24.3852 24.8413C24.8689 25.1289 25.3871 24.7435 25.3411 25.405C25.3353 25.5142 25.4389 25.5948 25.5426 25.566C26.3487 25.3302 27.7364 24.6745 28.6174 23.5932C28.7901 23.3804 29.2162 23.5817 29.0262 23.8865C28.0876 25.4337 26.8554 26.4978 25.9802 27.1132C25.9687 27.1247 25.9514 27.1305 25.9399 27.142C25.3353 27.5618 24.915 27.7689 24.915 27.7689C24.0973 28.2348 23.7 28.4131 23.4294 28.5339C23.1703 28.6489 22.6924 28.4476 22.6809 27.9242C22.6578 26.8429 22.5887 24.1626 22.5715 22.8397C23.0954 23.691 23.6943 23.4149 24.2816 23.5242C24.0052 24.0246 23.9476 24.5825 24.3852 24.8413ZM25.5714 41.5268C23.7864 41.6188 23.9879 40.4915 23.9016 39.2089C23.7518 36.983 23.7691 33.1237 23.7691 32.0078C23.7691 31.2601 23.9016 31.1278 24.2298 30.8633C25.0129 30.2363 28.1049 27.8724 28.3583 27.6654C28.5943 27.9127 29.7747 29.2586 32.3946 29.04C32.982 28.994 33.765 28.6949 34.2948 27.3893C36.1604 28.206 36.4656 26.2792 36.1604 25.6638C35.7573 24.8528 35.4752 24.686 34.5827 24.3524C36.3677 24.0993 36.4771 25.0369 37.289 24.7953C38.0433 24.5767 38.4348 23.8405 37.3005 22.6614C37.4559 21.8275 38.4924 22.6269 39.0049 21.9827C39.9377 20.8152 38.6018 19.4578 38.1066 19.2507C37.9108 19.1702 37.145 18.8999 36.5001 19.4405C36.5865 18.5318 36.097 18.1637 35.7573 17.9393C36.1661 17.692 36.6325 16.858 36.6095 16.1161C36.5922 15.4949 36.3619 15.0348 35.9186 14.7012C35.4118 14.3101 35.1355 13.9477 33.1777 14.2295C32.6307 14.3101 31.8649 14.3503 32.3659 13.177C32.7286 12.3373 32.8668 11.1179 32.101 10.6233C31.8131 10.4392 31.9282 10.5255 31.4158 10.3357C31.2027 10.2552 30.9436 10.1804 30.6787 10.1056C29.5905 9.92732 28.8535 10.2322 28.4043 10.4852C28.2546 10.5715 28.0992 10.3817 28.2086 10.2437C28.6001 9.74327 29.1356 9.46719 29.6078 9.3234C29.8611 8.77699 29.5962 7.87974 28.5886 7.5634C27.7076 7.28732 27.4427 7.97752 26.3372 7.54039C24.5234 6.82144 23.8037 7.97752 23.4409 8.06379C23.7922 7.0515 23.9016 5.28575 21.9496 4.96941C21.5062 4.89464 20.8844 5.22248 20.7059 5.6366C20.3085 6.55686 19.9976 7.09176 18.823 7.02275C18.3566 6.99399 17.2222 6.12549 16.1225 6.60863C15.6042 6.83869 15.6273 7.41961 15.2876 7.48863C13.8884 7.79346 13.8308 8.42614 13.7847 8.85176C13.6983 9.60523 14.2108 9.96758 14.4238 10.0941C15.2012 10.56 16.6695 11.394 16.0994 11.463C14.0899 11.6988 13.5083 10.2149 12.0573 10.583C10.6696 10.9339 11.6658 12.2222 9.65621 12.0957C9.27618 12.0727 8.09578 11.5838 7.18601 13.0562C6.99024 13.3726 7.00176 13.8557 7.02479 14.08C7.0651 14.4251 7.34148 14.8335 6.64476 15.0923C4.94038 15.725 5.1995 17.5885 5.78106 18.0831C6.54112 18.7331 7.28966 18.7618 7.94031 18.8021C8.60249 18.8424 8.98252 19.6131 8.57946 20.1365C8.45278 20.3033 8.25701 20.4241 7.99789 20.4643C5.92501 20.7691 6.16109 22.995 7.28966 23.4437C7.71575 23.6162 8.56218 23.8118 8.19367 24.0878C6.51808 25.359 7.55453 26.4345 8.33762 26.5323C9.49498 26.6703 7.96911 28.9997 11.0554 29.9258C12.184 30.2651 12.7655 29.1493 13.1916 29.1378C13.5141 29.1263 14.1014 29.5461 14.7348 29.7187C15.1897 29.8452 15.5524 29.8567 15.8576 29.782C16.2031 29.6899 16.5486 29.4196 16.6349 29.0745C16.704 28.8042 16.6983 28.4648 16.4795 28.1255L16.6004 27.5216C16.4334 26.9464 15.4027 26.239 14.5563 25.9629C14.3087 25.8824 14.4008 25.382 14.7118 25.4395C15.7424 25.6235 16.6119 26.1239 16.871 26.262C17.1301 26.4 18.5524 27.211 19.7673 28.0105C19.9573 28.137 20.061 28.2175 20.0667 28.4246C20.0725 28.7984 20.1819 34.9354 20.0494 38.9098C19.9976 40.4743 20.107 41.7166 18.4199 41.5153C8.93069 39.7726 1.77923 31.2716 2.17077 21.2063C2.56808 11.0259 10.7617 2.72052 20.9419 2.17987C32.3831 1.57595 41.8896 10.698 41.8896 22C41.8896 31.7318 34.8418 39.8531 25.5714 41.5268Z" fill="#124734"/>
<path d="M169.136 37.2763V37.8688H168.347V40.2557H167.668V37.8688H166.879V37.2763H169.136Z" fill="#124734"/>
<path d="M172.741 40.2557H172.045L171.849 38.559L171.198 39.9106H170.68L170.029 38.5647L169.828 40.2557H169.131L169.5 37.2763H170.064L170.933 39.1399L171.791 37.2763H172.373L172.741 40.2557Z" fill="#124734"/>
</svg>
